<svg width="44.142" height="73.049" viewBox="0 0 44.142 73.049" xmlns="http://www.w3.org/2000/svg"><g id="svgGroup" stroke-linecap="round" fill-rule="evenodd" font-size="9pt" stroke="#000" stroke-width="0.25mm" fill="#000" style="stroke:#000;stroke-width:0.25mm;fill:#000"><path d="M 15.332 37.208 L 15.332 34.473 L 21.289 34.473 Q 29.292 34.333 34.357 30.38 A 17.165 17.165 0 0 0 34.79 30.03 A 14.305 14.305 0 0 0 38.613 25.233 A 14.006 14.006 0 0 0 39.941 19.093 Q 39.941 11.524 35.327 7.081 Q 30.713 2.638 22.51 2.638 A 22.428 22.428 0 0 0 16.364 3.441 A 17.43 17.43 0 0 0 9.326 7.325 A 15.507 15.507 0 0 0 4.196 18.22 A 21.262 21.262 0 0 0 4.15 19.63 L 1.514 19.63 A 20.088 20.088 0 0 1 2.582 13.007 A 18.308 18.308 0 0 1 4.248 9.473 Q 6.982 4.981 11.816 2.491 A 22.668 22.668 0 0 1 21.24 0.031 A 26.815 26.815 0 0 1 22.51 0.001 A 26.523 26.523 0 0 1 28.651 0.672 A 18.058 18.058 0 0 1 37.158 5.201 A 17.24 17.24 0 0 1 42.196 14.827 A 24.892 24.892 0 0 1 42.578 19.288 Q 42.578 24.952 38.989 29.395 A 18.596 18.596 0 0 1 31.585 34.871 A 23.6 23.6 0 0 1 29.297 35.694 A 24.638 24.638 0 0 1 34.556 37.514 A 17.912 17.912 0 0 1 40.21 41.749 A 15.365 15.365 0 0 1 43.794 49.277 A 21.532 21.532 0 0 1 44.141 53.223 A 22.918 22.918 0 0 1 43.289 59.633 A 17.33 17.33 0 0 1 38.33 67.677 A 19.737 19.737 0 0 1 28.694 72.497 A 28.502 28.502 0 0 1 22.949 73.048 A 25.886 25.886 0 0 1 11.035 70.264 Q 5.566 67.481 2.783 62.891 A 19.232 19.232 0 0 1 0.133 54.856 A 24.077 24.077 0 0 1 0 52.296 L 2.637 52.296 A 17.278 17.278 0 0 0 4.251 59.82 A 17.206 17.206 0 0 0 8.398 65.26 A 20.042 20.042 0 0 0 19.44 70.19 A 27.077 27.077 0 0 0 22.949 70.411 Q 31.689 70.411 36.597 65.894 A 14.838 14.838 0 0 0 41.137 57.514 A 21.795 21.795 0 0 0 41.504 53.419 A 18.757 18.757 0 0 0 40.884 48.453 A 13.188 13.188 0 0 0 36.255 41.407 A 17.147 17.147 0 0 0 30.961 38.635 Q 28.588 37.848 25.701 37.495 A 41.253 41.253 0 0 0 20.898 37.208 L 15.332 37.208 Z" vector-effect="non-scaling-stroke"/></g></svg>