<svg width="46.241" height="72.999" viewBox="0 0 46.241 72.999" xmlns="http://www.w3.org/2000/svg"><g id="svgGroup" stroke-linecap="round" fill-rule="evenodd" font-size="9pt" stroke="#000" stroke-width="0.25mm" fill="#000" style="stroke:#000;stroke-width:0.25mm;fill:#000"><path d="M 0.001 46.924 L 0.001 44.58 A 33.867 33.867 0 0 1 0.894 36.657 A 28.191 28.191 0 0 1 2.906 30.982 Q 5.811 24.951 11.109 21.582 A 21.683 21.683 0 0 1 22.265 18.226 A 26.06 26.06 0 0 1 23.096 18.213 A 23.084 23.084 0 0 1 31.043 19.556 A 21.335 21.335 0 0 1 35.01 21.485 A 21.79 21.79 0 0 1 42.651 29.637 A 26.447 26.447 0 0 1 43.238 30.762 A 29.32 29.32 0 0 1 46.034 40.615 A 36.122 36.122 0 0 1 46.241 44.287 L 46.241 46.631 A 34.53 34.53 0 0 1 45.428 54.27 A 28.164 28.164 0 0 1 43.36 60.254 A 22.893 22.893 0 0 1 38.256 67.266 A 21.654 21.654 0 0 1 35.181 69.629 A 21.683 21.683 0 0 1 24.025 72.985 A 26.06 26.06 0 0 1 23.194 72.998 A 23.048 23.048 0 0 1 15.194 71.636 A 21.316 21.316 0 0 1 11.207 69.678 Q 5.909 66.358 2.979 60.376 A 29.289 29.289 0 0 1 0.205 50.566 A 35.988 35.988 0 0 1 0.001 46.924 Z M 2.637 45.069 L 2.637 46.631 A 28.934 28.934 0 0 0 3.844 55.084 A 26.126 26.126 0 0 0 5.25 58.716 A 21.87 21.87 0 0 0 9.075 64.387 A 19.472 19.472 0 0 0 12.525 67.285 A 18.681 18.681 0 0 0 22.08 70.335 A 22.745 22.745 0 0 0 23.194 70.362 Q 32.227 70.362 37.916 63.574 Q 43.604 56.787 43.604 46.094 L 43.604 44.58 Q 43.604 38.086 40.967 32.569 A 22.259 22.259 0 0 0 37.152 26.9 A 19.708 19.708 0 0 0 33.668 23.95 A 18.622 18.622 0 0 0 23.281 20.851 A 22.399 22.399 0 0 0 23.096 20.85 A 19.239 19.239 0 0 0 15.124 22.465 A 18.774 18.774 0 0 0 8.35 27.735 A 24.467 24.467 0 0 0 3.064 39.621 A 33.469 33.469 0 0 0 2.637 45.069 Z M 31.544 2.735 Q 31.544 1.612 32.325 0.806 A 2.546 2.546 0 0 1 34.159 0.001 A 3.087 3.087 0 0 1 34.229 0 A 2.627 2.627 0 0 1 36.133 0.781 A 3.244 3.244 0 0 1 36.158 0.806 A 2.69 2.69 0 0 1 36.836 1.89 A 2.738 2.738 0 0 1 36.963 2.735 A 2.546 2.546 0 0 1 36.207 4.59 A 3.081 3.081 0 0 1 36.158 4.639 A 2.673 2.673 0 0 1 34.229 5.42 A 2.657 2.657 0 0 1 33.02 5.147 A 2.685 2.685 0 0 1 32.325 4.639 A 2.587 2.587 0 0 1 31.544 2.77 A 3.205 3.205 0 0 1 31.544 2.735 Z M 9.815 2.735 Q 9.815 1.612 10.596 0.806 A 2.546 2.546 0 0 1 12.431 0.001 A 3.087 3.087 0 0 1 12.501 0 A 2.627 2.627 0 0 1 14.404 0.781 A 3.244 3.244 0 0 1 14.429 0.806 A 2.69 2.69 0 0 1 15.107 1.89 A 2.738 2.738 0 0 1 15.235 2.735 A 2.546 2.546 0 0 1 14.479 4.59 A 3.081 3.081 0 0 1 14.429 4.639 A 2.673 2.673 0 0 1 12.501 5.42 A 2.657 2.657 0 0 1 11.291 5.147 A 2.685 2.685 0 0 1 10.596 4.639 A 2.587 2.587 0 0 1 9.815 2.77 A 3.205 3.205 0 0 1 9.815 2.735 Z" vector-effect="non-scaling-stroke"/></g></svg>