<svg width="49.024" height="71.095" viewBox="0 0 49.024 71.095" xmlns="http://www.w3.org/2000/svg"><g id="svgGroup" stroke-linecap="round" fill-rule="evenodd" font-size="9pt" stroke="#000" stroke-width="0.25mm" fill="#000" style="stroke:#000;stroke-width:0.25mm;fill:#000"><path d="M 19.922 71.095 L 0 71.095 L 0 0.001 L 19.678 0.001 A 29.994 29.994 0 0 1 30.398 1.889 A 28.134 28.134 0 0 1 34.619 3.907 A 27.576 27.576 0 0 1 45.117 14.869 A 32.761 32.761 0 0 1 48.902 27.975 A 39.269 39.269 0 0 1 49.023 30.665 L 49.023 39.894 A 36.354 36.354 0 0 1 47.707 49.827 A 31.586 31.586 0 0 1 45.288 55.909 A 27.632 27.632 0 0 1 34.863 67.042 A 28.769 28.769 0 0 1 20.436 71.088 A 34.059 34.059 0 0 1 19.922 71.095 Z M 20.068 2.638 L 2.637 2.638 L 2.637 68.458 L 19.678 68.458 A 26.139 26.139 0 0 0 33.276 64.82 A 25.432 25.432 0 0 0 42.871 54.664 A 30.308 30.308 0 0 0 46.335 41.91 A 35.936 35.936 0 0 0 46.387 40.187 L 46.387 31.056 A 32.27 32.27 0 0 0 44.994 21.459 A 28.964 28.964 0 0 0 42.993 16.603 A 25.412 25.412 0 0 0 33.521 6.422 Q 27.441 2.735 20.068 2.638 Z" vector-effect="non-scaling-stroke"/></g></svg>